<mxfile host="Electron" modified="2023-08-29T21:09:40.551Z" agent="Mozilla/5.0 (Windows NT 10.0; Win64; x64) AppleWebKit/537.36 (KHTML, like Gecko) draw.io/21.6.8 Chrome/114.0.5735.289 Electron/25.5.0 Safari/537.36" etag="MJqE57Rs_m6kktr_lAAT" version="21.6.8" type="device">
  <diagram id="R2lEEEUBdFMjLlhIrx00" name="Page-1">
    <mxGraphModel dx="1700" dy="1609" grid="1" gridSize="10" guides="1" tooltips="1" connect="1" arrows="1" fold="1" page="1" pageScale="1" pageWidth="850" pageHeight="1100" math="0" shadow="0" extFonts="Permanent Marker^https://fonts.googleapis.com/css?family=Permanent+Marker">
      <root>
        <mxCell id="0" />
        <mxCell id="1" parent="0" />
        <mxCell id="cQKNWQUC0CEqerO1ljun-1" value="PATIENT" style="whiteSpace=wrap;html=1;align=center;" parent="1" vertex="1">
          <mxGeometry x="635" y="-750" width="100" height="40" as="geometry" />
        </mxCell>
        <mxCell id="cQKNWQUC0CEqerO1ljun-2" value="Patient_Name" style="ellipse;whiteSpace=wrap;html=1;align=center;" parent="1" vertex="1">
          <mxGeometry x="655" y="-860" width="100" height="40" as="geometry" />
        </mxCell>
        <mxCell id="cQKNWQUC0CEqerO1ljun-6" value="" style="endArrow=none;html=1;rounded=0;" parent="1" edge="1">
          <mxGeometry relative="1" as="geometry">
            <mxPoint x="665" y="-760" as="sourcePoint" />
            <mxPoint x="705" y="-820" as="targetPoint" />
            <Array as="points">
              <mxPoint x="665" y="-750" />
            </Array>
          </mxGeometry>
        </mxCell>
        <mxCell id="cQKNWQUC0CEqerO1ljun-8" value="" style="resizable=0;html=1;whiteSpace=wrap;align=right;verticalAlign=bottom;" parent="cQKNWQUC0CEqerO1ljun-6" connectable="0" vertex="1">
          <mxGeometry x="1" relative="1" as="geometry" />
        </mxCell>
        <mxCell id="cQKNWQUC0CEqerO1ljun-9" value="" style="endArrow=none;html=1;rounded=0;" parent="1" edge="1">
          <mxGeometry relative="1" as="geometry">
            <mxPoint x="625" y="-840" as="sourcePoint" />
            <mxPoint x="525" y="-820" as="targetPoint" />
            <Array as="points">
              <mxPoint x="665" y="-750" />
            </Array>
          </mxGeometry>
        </mxCell>
        <mxCell id="cQKNWQUC0CEqerO1ljun-10" value="Gender" style="ellipse;whiteSpace=wrap;html=1;align=center;" parent="1" vertex="1">
          <mxGeometry x="480" y="-860" width="100" height="40" as="geometry" />
        </mxCell>
        <mxCell id="cQKNWQUC0CEqerO1ljun-11" value="Phone_number" style="ellipse;whiteSpace=wrap;html=1;align=center;" parent="1" vertex="1">
          <mxGeometry x="565" y="-880" width="100" height="40" as="geometry" />
        </mxCell>
        <mxCell id="cQKNWQUC0CEqerO1ljun-12" value="" style="endArrow=none;html=1;rounded=0;" parent="1" edge="1">
          <mxGeometry relative="1" as="geometry">
            <mxPoint x="815" y="-830" as="sourcePoint" />
            <mxPoint x="776.430466182328" y="-861.4304661823278" as="targetPoint" />
            <Array as="points">
              <mxPoint x="665" y="-750" />
            </Array>
          </mxGeometry>
        </mxCell>
        <mxCell id="cQKNWQUC0CEqerO1ljun-13" value="Blood Group" style="ellipse;whiteSpace=wrap;html=1;align=center;" parent="1" vertex="1">
          <mxGeometry x="730" y="-900" width="100" height="40" as="geometry" />
        </mxCell>
        <mxCell id="cQKNWQUC0CEqerO1ljun-14" value="Patient_ID" style="ellipse;whiteSpace=wrap;html=1;align=center;" parent="1" vertex="1">
          <mxGeometry x="800" y="-850" width="100" height="40" as="geometry" />
        </mxCell>
        <mxCell id="cQKNWQUC0CEqerO1ljun-15" value="APPOINTMENT" style="rounded=1;arcSize=10;whiteSpace=wrap;html=1;align=center;" parent="1" vertex="1">
          <mxGeometry x="50" y="-740" width="100" height="40" as="geometry" />
        </mxCell>
        <mxCell id="cQKNWQUC0CEqerO1ljun-16" value="" style="endArrow=none;html=1;rounded=0;" parent="1" edge="1">
          <mxGeometry relative="1" as="geometry">
            <mxPoint x="140" y="-900" as="sourcePoint" />
            <mxPoint x="210" y="-880" as="targetPoint" />
            <Array as="points">
              <mxPoint x="110" y="-740" />
            </Array>
          </mxGeometry>
        </mxCell>
        <mxCell id="cQKNWQUC0CEqerO1ljun-17" value="Specializtion" style="ellipse;whiteSpace=wrap;html=1;align=center;" parent="1" vertex="1">
          <mxGeometry x="200" y="-920" width="100" height="40" as="geometry" />
        </mxCell>
        <mxCell id="cQKNWQUC0CEqerO1ljun-18" value="" style="endArrow=none;html=1;rounded=0;" parent="1" edge="1">
          <mxGeometry relative="1" as="geometry">
            <mxPoint x="110" y="-740" as="sourcePoint" />
            <mxPoint x="70" y="-860" as="targetPoint" />
          </mxGeometry>
        </mxCell>
        <mxCell id="cQKNWQUC0CEqerO1ljun-20" value="" style="endArrow=none;html=1;rounded=0;" parent="1" edge="1">
          <mxGeometry relative="1" as="geometry">
            <mxPoint y="-830" as="sourcePoint" />
            <mxPoint x="110" y="-740" as="targetPoint" />
            <Array as="points">
              <mxPoint x="50" y="-780" />
            </Array>
          </mxGeometry>
        </mxCell>
        <mxCell id="cQKNWQUC0CEqerO1ljun-23" value="" style="endArrow=none;html=1;rounded=0;entryX=0.75;entryY=0;entryDx=0;entryDy=0;" parent="1" target="cQKNWQUC0CEqerO1ljun-15" edge="1">
          <mxGeometry relative="1" as="geometry">
            <mxPoint x="210" y="-810" as="sourcePoint" />
            <mxPoint x="460" y="-550" as="targetPoint" />
          </mxGeometry>
        </mxCell>
        <mxCell id="cQKNWQUC0CEqerO1ljun-24" value="Patient_ID" style="ellipse;whiteSpace=wrap;html=1;align=center;" parent="1" vertex="1">
          <mxGeometry x="100" y="-950" width="100" height="40" as="geometry" />
        </mxCell>
        <mxCell id="cQKNWQUC0CEqerO1ljun-25" value="Date" style="ellipse;whiteSpace=wrap;html=1;align=center;" parent="1" vertex="1">
          <mxGeometry y="-900" width="100" height="40" as="geometry" />
        </mxCell>
        <mxCell id="cQKNWQUC0CEqerO1ljun-26" value="Time" style="ellipse;whiteSpace=wrap;html=1;align=center;" parent="1" vertex="1">
          <mxGeometry x="-60" y="-870" width="100" height="40" as="geometry" />
        </mxCell>
        <mxCell id="cQKNWQUC0CEqerO1ljun-27" value="Doctor_Name" style="ellipse;whiteSpace=wrap;html=1;align=center;" parent="1" vertex="1">
          <mxGeometry x="220" y="-830" width="100" height="40" as="geometry" />
        </mxCell>
        <mxCell id="cQKNWQUC0CEqerO1ljun-29" value="" style="endArrow=none;html=1;rounded=0;exitX=1;exitY=0.5;exitDx=0;exitDy=0;entryX=0;entryY=0.5;entryDx=0;entryDy=0;entryPerimeter=0;" parent="1" target="cQKNWQUC0CEqerO1ljun-1" edge="1">
          <mxGeometry relative="1" as="geometry">
            <mxPoint x="470" y="-705" as="sourcePoint" />
            <mxPoint x="570" y="-470" as="targetPoint" />
            <Array as="points" />
          </mxGeometry>
        </mxCell>
        <mxCell id="cQKNWQUC0CEqerO1ljun-32" value="1" style="edgeLabel;html=1;align=center;verticalAlign=middle;resizable=0;points=[];" parent="cQKNWQUC0CEqerO1ljun-29" vertex="1" connectable="0">
          <mxGeometry x="0.7641" y="-6" relative="1" as="geometry">
            <mxPoint as="offset" />
          </mxGeometry>
        </mxCell>
        <mxCell id="cQKNWQUC0CEqerO1ljun-33" value="" style="endArrow=none;html=1;rounded=0;exitX=1;exitY=0.5;exitDx=0;exitDy=0;entryX=0;entryY=0.5;entryDx=0;entryDy=0;entryPerimeter=0;" parent="1" source="cQKNWQUC0CEqerO1ljun-15" edge="1">
          <mxGeometry relative="1" as="geometry">
            <mxPoint x="150" y="-720" as="sourcePoint" />
            <mxPoint x="340" y="-705" as="targetPoint" />
            <Array as="points" />
          </mxGeometry>
        </mxCell>
        <mxCell id="cQKNWQUC0CEqerO1ljun-34" value="1" style="edgeLabel;html=1;align=center;verticalAlign=middle;resizable=0;points=[];" parent="cQKNWQUC0CEqerO1ljun-33" vertex="1" connectable="0">
          <mxGeometry x="-0.7418" y="-5" relative="1" as="geometry">
            <mxPoint as="offset" />
          </mxGeometry>
        </mxCell>
        <mxCell id="cQKNWQUC0CEqerO1ljun-36" value="DOCTOR" style="rounded=1;arcSize=10;whiteSpace=wrap;html=1;align=center;" parent="1" vertex="1">
          <mxGeometry x="160" y="-200" width="100" height="40" as="geometry" />
        </mxCell>
        <mxCell id="cQKNWQUC0CEqerO1ljun-37" value="" style="endArrow=none;html=1;rounded=0;entryX=0.375;entryY=1.084;entryDx=0;entryDy=0;entryPerimeter=0;" parent="1" target="cQKNWQUC0CEqerO1ljun-36" edge="1">
          <mxGeometry relative="1" as="geometry">
            <mxPoint x="70" y="-40" as="sourcePoint" />
            <mxPoint x="270" y="-150" as="targetPoint" />
          </mxGeometry>
        </mxCell>
        <mxCell id="cQKNWQUC0CEqerO1ljun-38" value="" style="endArrow=none;html=1;rounded=0;" parent="1" edge="1">
          <mxGeometry relative="1" as="geometry">
            <mxPoint x="330" y="-60" as="sourcePoint" />
            <mxPoint x="220" y="-30" as="targetPoint" />
            <Array as="points">
              <mxPoint x="200" y="-160" />
            </Array>
          </mxGeometry>
        </mxCell>
        <mxCell id="cQKNWQUC0CEqerO1ljun-39" value="" style="endArrow=none;html=1;rounded=0;exitX=0;exitY=0.75;exitDx=0;exitDy=0;" parent="1" source="cQKNWQUC0CEqerO1ljun-41" edge="1">
          <mxGeometry relative="1" as="geometry">
            <mxPoint x="150" y="-170" as="sourcePoint" />
            <mxPoint x="50" y="-230" as="targetPoint" />
          </mxGeometry>
        </mxCell>
        <mxCell id="cQKNWQUC0CEqerO1ljun-40" value="" style="endArrow=none;html=1;rounded=0;exitX=1;exitY=0.75;exitDx=0;exitDy=0;" parent="1" source="cQKNWQUC0CEqerO1ljun-36" edge="1">
          <mxGeometry relative="1" as="geometry">
            <mxPoint x="300" y="-160" as="sourcePoint" />
            <mxPoint x="340" y="-220" as="targetPoint" />
          </mxGeometry>
        </mxCell>
        <mxCell id="cQKNWQUC0CEqerO1ljun-42" value="" style="endArrow=none;html=1;rounded=0;exitX=0;exitY=0.75;exitDx=0;exitDy=0;" parent="1" source="cQKNWQUC0CEqerO1ljun-36" target="cQKNWQUC0CEqerO1ljun-41" edge="1">
          <mxGeometry relative="1" as="geometry">
            <mxPoint x="160" y="-170" as="sourcePoint" />
            <mxPoint x="50" y="-230" as="targetPoint" />
          </mxGeometry>
        </mxCell>
        <mxCell id="cQKNWQUC0CEqerO1ljun-41" value="Doctor_ID" style="ellipse;whiteSpace=wrap;html=1;align=center;" parent="1" vertex="1">
          <mxGeometry x="10" y="-270" width="100" height="40" as="geometry" />
        </mxCell>
        <mxCell id="cQKNWQUC0CEqerO1ljun-43" value="Specialization" style="ellipse;whiteSpace=wrap;html=1;align=center;" parent="1" vertex="1">
          <mxGeometry x="290" y="-260" width="100" height="40" as="geometry" />
        </mxCell>
        <mxCell id="cQKNWQUC0CEqerO1ljun-45" value="Experience" style="ellipse;whiteSpace=wrap;html=1;align=center;" parent="1" vertex="1">
          <mxGeometry x="10" y="-40" width="100" height="40" as="geometry" />
        </mxCell>
        <mxCell id="cQKNWQUC0CEqerO1ljun-46" value="Gender" style="ellipse;whiteSpace=wrap;html=1;align=center;" parent="1" vertex="1">
          <mxGeometry x="170" y="-30" width="100" height="40" as="geometry" />
        </mxCell>
        <mxCell id="cQKNWQUC0CEqerO1ljun-47" value="Email" style="ellipse;whiteSpace=wrap;html=1;align=center;" parent="1" vertex="1">
          <mxGeometry x="320" y="-70" width="100" height="40" as="geometry" />
        </mxCell>
        <mxCell id="cQKNWQUC0CEqerO1ljun-51" value="" style="edgeStyle=entityRelationEdgeStyle;fontSize=12;html=1;endArrow=ERone;endFill=1;rounded=0;entryX=0.5;entryY=1;entryDx=0;entryDy=0;exitX=0.5;exitY=0;exitDx=0;exitDy=0;" parent="1" source="cQKNWQUC0CEqerO1ljun-36" edge="1">
          <mxGeometry width="100" height="100" relative="1" as="geometry">
            <mxPoint x="200" y="-210" as="sourcePoint" />
            <mxPoint x="110" y="-460.00000000000045" as="targetPoint" />
          </mxGeometry>
        </mxCell>
        <mxCell id="cQKNWQUC0CEqerO1ljun-54" value="1" style="edgeLabel;html=1;align=center;verticalAlign=middle;resizable=0;points=[];" parent="cQKNWQUC0CEqerO1ljun-51" vertex="1" connectable="0">
          <mxGeometry x="-0.0295" y="-5" relative="1" as="geometry">
            <mxPoint as="offset" />
          </mxGeometry>
        </mxCell>
        <mxCell id="cQKNWQUC0CEqerO1ljun-53" value="" style="edgeStyle=entityRelationEdgeStyle;fontSize=12;html=1;endArrow=ERoneToMany;rounded=0;entryX=0.5;entryY=1;entryDx=0;entryDy=0;" parent="1" target="cQKNWQUC0CEqerO1ljun-15" edge="1">
          <mxGeometry width="100" height="100" relative="1" as="geometry">
            <mxPoint x="100" y="-520" as="sourcePoint" />
            <mxPoint x="100" y="-690" as="targetPoint" />
          </mxGeometry>
        </mxCell>
        <mxCell id="cQKNWQUC0CEqerO1ljun-55" value="m" style="edgeLabel;html=1;align=center;verticalAlign=middle;resizable=0;points=[];" parent="cQKNWQUC0CEqerO1ljun-53" vertex="1" connectable="0">
          <mxGeometry x="0.0358" y="-4" relative="1" as="geometry">
            <mxPoint as="offset" />
          </mxGeometry>
        </mxCell>
        <mxCell id="cQKNWQUC0CEqerO1ljun-57" value="GIve" style="shape=rhombus;perimeter=rhombusPerimeter;whiteSpace=wrap;html=1;align=center;" parent="1" vertex="1">
          <mxGeometry x="240" y="-340" width="120" height="60" as="geometry" />
        </mxCell>
        <mxCell id="cQKNWQUC0CEqerO1ljun-58" value="" style="edgeStyle=entityRelationEdgeStyle;fontSize=12;html=1;endArrow=ERmandOne;startArrow=ERmandOne;rounded=0;" parent="1" edge="1">
          <mxGeometry width="100" height="100" relative="1" as="geometry">
            <mxPoint x="190" y="-200" as="sourcePoint" />
            <mxPoint x="290" y="-300" as="targetPoint" />
            <Array as="points">
              <mxPoint x="280" y="-370" />
              <mxPoint x="300" y="-350" />
            </Array>
          </mxGeometry>
        </mxCell>
        <mxCell id="cQKNWQUC0CEqerO1ljun-72" value="1" style="edgeLabel;html=1;align=center;verticalAlign=middle;resizable=0;points=[];" parent="cQKNWQUC0CEqerO1ljun-58" vertex="1" connectable="0">
          <mxGeometry x="-0.1093" y="-4" relative="1" as="geometry">
            <mxPoint y="-1" as="offset" />
          </mxGeometry>
        </mxCell>
        <mxCell id="cQKNWQUC0CEqerO1ljun-59" value="" style="edgeStyle=entityRelationEdgeStyle;fontSize=12;html=1;endArrow=ERzeroToMany;startArrow=ERmandOne;rounded=0;" parent="1" target="cQKNWQUC0CEqerO1ljun-60" edge="1">
          <mxGeometry width="100" height="100" relative="1" as="geometry">
            <mxPoint x="300" y="-340" as="sourcePoint" />
            <mxPoint x="370" y="-430" as="targetPoint" />
          </mxGeometry>
        </mxCell>
        <mxCell id="cQKNWQUC0CEqerO1ljun-73" value="m" style="edgeLabel;html=1;align=center;verticalAlign=middle;resizable=0;points=[];" parent="cQKNWQUC0CEqerO1ljun-59" vertex="1" connectable="0">
          <mxGeometry x="-0.4347" y="1" relative="1" as="geometry">
            <mxPoint as="offset" />
          </mxGeometry>
        </mxCell>
        <mxCell id="cQKNWQUC0CEqerO1ljun-60" value="Prescription" style="rounded=1;arcSize=10;whiteSpace=wrap;html=1;align=center;" parent="1" vertex="1">
          <mxGeometry x="320" y="-450.0000000000002" width="100" height="40" as="geometry" />
        </mxCell>
        <mxCell id="cQKNWQUC0CEqerO1ljun-61" value="" style="endArrow=none;html=1;rounded=0;entryX=0.646;entryY=-0.049;entryDx=0;entryDy=0;entryPerimeter=0;" parent="1" target="cQKNWQUC0CEqerO1ljun-60" edge="1">
          <mxGeometry relative="1" as="geometry">
            <mxPoint x="380" y="-540" as="sourcePoint" />
            <mxPoint x="460" y="-560" as="targetPoint" />
            <Array as="points" />
          </mxGeometry>
        </mxCell>
        <mxCell id="cQKNWQUC0CEqerO1ljun-62" value="" style="endArrow=none;html=1;rounded=0;entryX=0.5;entryY=0;entryDx=0;entryDy=0;exitX=0.652;exitY=1.025;exitDx=0;exitDy=0;exitPerimeter=0;" parent="1" target="cQKNWQUC0CEqerO1ljun-60" edge="1">
          <mxGeometry relative="1" as="geometry">
            <mxPoint x="315.1999999999998" y="-539" as="sourcePoint" />
            <mxPoint x="460" y="-560" as="targetPoint" />
          </mxGeometry>
        </mxCell>
        <mxCell id="cQKNWQUC0CEqerO1ljun-63" value="" style="endArrow=none;html=1;rounded=0;" parent="1" edge="1">
          <mxGeometry relative="1" as="geometry">
            <mxPoint x="270" y="-490" as="sourcePoint" />
            <mxPoint x="258.5695338177052" y="-501.4304661822948" as="targetPoint" />
          </mxGeometry>
        </mxCell>
        <mxCell id="cQKNWQUC0CEqerO1ljun-65" value="" style="endArrow=none;html=1;rounded=0;entryX=0.25;entryY=0;entryDx=0;entryDy=0;" parent="1" target="cQKNWQUC0CEqerO1ljun-60" edge="1">
          <mxGeometry relative="1" as="geometry">
            <mxPoint x="270" y="-490" as="sourcePoint" />
            <mxPoint x="460" y="-560" as="targetPoint" />
          </mxGeometry>
        </mxCell>
        <mxCell id="cQKNWQUC0CEqerO1ljun-69" value="" style="edgeStyle=entityRelationEdgeStyle;fontSize=12;html=1;endArrow=ERmandOne;startArrow=ERmandOne;rounded=0;" parent="1" target="cQKNWQUC0CEqerO1ljun-70" edge="1">
          <mxGeometry width="100" height="100" relative="1" as="geometry">
            <mxPoint x="410" y="-450" as="sourcePoint" />
            <mxPoint x="520" y="-590" as="targetPoint" />
          </mxGeometry>
        </mxCell>
        <mxCell id="cQKNWQUC0CEqerO1ljun-74" value="1" style="edgeLabel;html=1;align=center;verticalAlign=middle;resizable=0;points=[];" parent="cQKNWQUC0CEqerO1ljun-69" vertex="1" connectable="0">
          <mxGeometry x="-0.4909" y="-4" relative="1" as="geometry">
            <mxPoint as="offset" />
          </mxGeometry>
        </mxCell>
        <mxCell id="cQKNWQUC0CEqerO1ljun-70" value="ISSUED_TO" style="shape=rhombus;perimeter=rhombusPerimeter;whiteSpace=wrap;html=1;align=center;" parent="1" vertex="1">
          <mxGeometry x="510" y="-640" width="120" height="60" as="geometry" />
        </mxCell>
        <mxCell id="cQKNWQUC0CEqerO1ljun-71" value="" style="edgeStyle=entityRelationEdgeStyle;fontSize=12;html=1;endArrow=ERmandOne;startArrow=ERmandOne;rounded=0;" parent="1" edge="1">
          <mxGeometry width="100" height="100" relative="1" as="geometry">
            <mxPoint x="610" y="-610" as="sourcePoint" />
            <mxPoint x="710" y="-710" as="targetPoint" />
          </mxGeometry>
        </mxCell>
        <mxCell id="cQKNWQUC0CEqerO1ljun-75" value="1" style="edgeLabel;html=1;align=center;verticalAlign=middle;resizable=0;points=[];" parent="cQKNWQUC0CEqerO1ljun-71" vertex="1" connectable="0">
          <mxGeometry x="-0.0012" y="-2" relative="1" as="geometry">
            <mxPoint as="offset" />
          </mxGeometry>
        </mxCell>
        <mxCell id="cQKNWQUC0CEqerO1ljun-76" value="CANCEL/CONFIRM" style="shape=rhombus;perimeter=rhombusPerimeter;whiteSpace=wrap;html=1;align=center;" parent="1" vertex="1">
          <mxGeometry x="50" y="-520" width="120" height="60" as="geometry" />
        </mxCell>
        <mxCell id="cQKNWQUC0CEqerO1ljun-78" value="ADMINSTRATION" style="whiteSpace=wrap;html=1;align=center;" parent="1" vertex="1">
          <mxGeometry x="740" y="-170" width="100" height="40" as="geometry" />
        </mxCell>
        <mxCell id="cQKNWQUC0CEqerO1ljun-79" value="" style="endArrow=none;html=1;rounded=0;entryX=0.416;entryY=-0.034;entryDx=0;entryDy=0;entryPerimeter=0;" parent="1" target="cQKNWQUC0CEqerO1ljun-78" edge="1">
          <mxGeometry relative="1" as="geometry">
            <mxPoint x="800" y="-250" as="sourcePoint" />
            <mxPoint x="600" y="-340" as="targetPoint" />
            <Array as="points">
              <mxPoint x="810" y="-220" />
            </Array>
          </mxGeometry>
        </mxCell>
        <mxCell id="cQKNWQUC0CEqerO1ljun-80" value="" style="endArrow=none;html=1;rounded=0;" parent="1" target="cQKNWQUC0CEqerO1ljun-87" edge="1">
          <mxGeometry relative="1" as="geometry">
            <mxPoint x="880" as="sourcePoint" />
            <mxPoint x="798.4321439303349" y="-29.990164888224854" as="targetPoint" />
            <Array as="points">
              <mxPoint x="790" y="-130" />
            </Array>
          </mxGeometry>
        </mxCell>
        <mxCell id="cQKNWQUC0CEqerO1ljun-81" value="" style="endArrow=none;html=1;rounded=0;entryX=0.858;entryY=1.157;entryDx=0;entryDy=0;entryPerimeter=0;" parent="1" target="cQKNWQUC0CEqerO1ljun-78" edge="1">
          <mxGeometry relative="1" as="geometry">
            <mxPoint x="890" y="-40" as="sourcePoint" />
            <mxPoint x="890" y="-80" as="targetPoint" />
          </mxGeometry>
        </mxCell>
        <mxCell id="cQKNWQUC0CEqerO1ljun-82" value="" style="endArrow=none;html=1;rounded=0;" parent="1" edge="1">
          <mxGeometry relative="1" as="geometry">
            <mxPoint x="700" as="sourcePoint" />
            <mxPoint x="770" y="50" as="targetPoint" />
            <Array as="points">
              <mxPoint x="740" y="-130" />
            </Array>
          </mxGeometry>
        </mxCell>
        <mxCell id="cQKNWQUC0CEqerO1ljun-85" value="Admin_ID" style="ellipse;whiteSpace=wrap;html=1;align=center;" parent="1" vertex="1">
          <mxGeometry x="630" width="100" height="40" as="geometry" />
        </mxCell>
        <mxCell id="cQKNWQUC0CEqerO1ljun-86" value="Gender" style="ellipse;whiteSpace=wrap;html=1;align=center;" parent="1" vertex="1">
          <mxGeometry x="720" y="50" width="100" height="40" as="geometry" />
        </mxCell>
        <mxCell id="cQKNWQUC0CEqerO1ljun-87" value="Email" style="ellipse;whiteSpace=wrap;html=1;align=center;" parent="1" vertex="1">
          <mxGeometry x="748.4321439303349" y="-49.990164888224854" width="100" height="40" as="geometry" />
        </mxCell>
        <mxCell id="cQKNWQUC0CEqerO1ljun-88" value="Phone_number" style="ellipse;whiteSpace=wrap;html=1;align=center;" parent="1" vertex="1">
          <mxGeometry x="848.4300000000001" width="100" height="40" as="geometry" />
        </mxCell>
        <mxCell id="cQKNWQUC0CEqerO1ljun-89" value="Address" style="ellipse;whiteSpace=wrap;html=1;align=center;" parent="1" vertex="1">
          <mxGeometry x="890" y="-60" width="100" height="40" as="geometry" />
        </mxCell>
        <mxCell id="cQKNWQUC0CEqerO1ljun-90" value="Generate" style="shape=rhombus;perimeter=rhombusPerimeter;whiteSpace=wrap;html=1;align=center;" parent="1" vertex="1">
          <mxGeometry x="738.4300000000001" y="-300" width="120" height="60" as="geometry" />
        </mxCell>
        <mxCell id="cQKNWQUC0CEqerO1ljun-91" value="" style="edgeStyle=entityRelationEdgeStyle;fontSize=12;html=1;endArrow=ERoneToMany;rounded=0;entryX=1;entryY=1;entryDx=0;entryDy=0;exitX=0;exitY=0;exitDx=0;exitDy=0;" parent="1" source="cQKNWQUC0CEqerO1ljun-78" target="cQKNWQUC0CEqerO1ljun-36" edge="1">
          <mxGeometry width="100" height="100" relative="1" as="geometry">
            <mxPoint x="720" y="-150" as="sourcePoint" />
            <mxPoint x="340" y="-180" as="targetPoint" />
            <Array as="points">
              <mxPoint x="730" y="-140" />
              <mxPoint x="750" y="-160" />
              <mxPoint x="730" y="-140" />
            </Array>
          </mxGeometry>
        </mxCell>
        <mxCell id="cQKNWQUC0CEqerO1ljun-94" value="1" style="edgeLabel;html=1;align=center;verticalAlign=middle;resizable=0;points=[];" parent="cQKNWQUC0CEqerO1ljun-91" vertex="1" connectable="0">
          <mxGeometry x="-0.6762" y="-2" relative="1" as="geometry">
            <mxPoint as="offset" />
          </mxGeometry>
        </mxCell>
        <mxCell id="cQKNWQUC0CEqerO1ljun-95" value="m" style="edgeLabel;html=1;align=center;verticalAlign=middle;resizable=0;points=[];" parent="cQKNWQUC0CEqerO1ljun-91" vertex="1" connectable="0">
          <mxGeometry x="0.7261" y="1" relative="1" as="geometry">
            <mxPoint as="offset" />
          </mxGeometry>
        </mxCell>
        <mxCell id="cQKNWQUC0CEqerO1ljun-93" value="Add" style="shape=rhombus;perimeter=rhombusPerimeter;whiteSpace=wrap;html=1;align=center;" parent="1" vertex="1">
          <mxGeometry x="430" y="-190" width="120" height="60" as="geometry" />
        </mxCell>
        <mxCell id="cQKNWQUC0CEqerO1ljun-96" value="" style="endArrow=none;html=1;rounded=0;entryX=0.5;entryY=0;entryDx=0;entryDy=0;" parent="1" target="cQKNWQUC0CEqerO1ljun-90" edge="1">
          <mxGeometry relative="1" as="geometry">
            <mxPoint x="798" y="-390" as="sourcePoint" />
            <mxPoint x="600" y="-350" as="targetPoint" />
          </mxGeometry>
        </mxCell>
        <mxCell id="cQKNWQUC0CEqerO1ljun-97" value="BILL" style="whiteSpace=wrap;html=1;align=center;" parent="1" vertex="1">
          <mxGeometry x="755" y="-430" width="100" height="40" as="geometry" />
        </mxCell>
        <mxCell id="cQKNWQUC0CEqerO1ljun-99" value="" style="endArrow=none;html=1;rounded=0;" parent="1" target="cQKNWQUC0CEqerO1ljun-109" edge="1">
          <mxGeometry relative="1" as="geometry">
            <mxPoint x="900" y="-550" as="sourcePoint" />
            <mxPoint x="930" y="-510" as="targetPoint" />
            <Array as="points">
              <mxPoint x="810" y="-430" />
            </Array>
          </mxGeometry>
        </mxCell>
        <mxCell id="cQKNWQUC0CEqerO1ljun-101" value="" style="endArrow=none;html=1;rounded=0;entryX=1;entryY=0.75;entryDx=0;entryDy=0;" parent="1" target="cQKNWQUC0CEqerO1ljun-97" edge="1">
          <mxGeometry relative="1" as="geometry">
            <mxPoint x="930" y="-460" as="sourcePoint" />
            <mxPoint x="600" y="-410" as="targetPoint" />
          </mxGeometry>
        </mxCell>
        <mxCell id="cQKNWQUC0CEqerO1ljun-102" value="" style="endArrow=none;html=1;rounded=0;entryX=1;entryY=1;entryDx=0;entryDy=0;" parent="1" target="cQKNWQUC0CEqerO1ljun-97" edge="1">
          <mxGeometry relative="1" as="geometry">
            <mxPoint x="910" y="-340" as="sourcePoint" />
            <mxPoint x="600" y="-410" as="targetPoint" />
          </mxGeometry>
        </mxCell>
        <mxCell id="cQKNWQUC0CEqerO1ljun-105" value="" style="endArrow=none;html=1;rounded=0;entryX=0;entryY=0.25;entryDx=0;entryDy=0;" parent="1" target="cQKNWQUC0CEqerO1ljun-97" edge="1">
          <mxGeometry relative="1" as="geometry">
            <mxPoint x="670" y="-500" as="sourcePoint" />
            <mxPoint x="750" y="-430" as="targetPoint" />
          </mxGeometry>
        </mxCell>
        <mxCell id="cQKNWQUC0CEqerO1ljun-106" value="Bill_Number" style="ellipse;whiteSpace=wrap;html=1;align=center;" parent="1" vertex="1">
          <mxGeometry x="600" y="-530" width="100" height="40" as="geometry" />
        </mxCell>
        <mxCell id="cQKNWQUC0CEqerO1ljun-107" value="Time" style="ellipse;whiteSpace=wrap;html=1;align=center;" parent="1" vertex="1">
          <mxGeometry x="870" y="-350" width="100" height="40" as="geometry" />
        </mxCell>
        <mxCell id="cQKNWQUC0CEqerO1ljun-108" value="Amount" style="ellipse;whiteSpace=wrap;html=1;align=center;" parent="1" vertex="1">
          <mxGeometry x="910" y="-470" width="100" height="40" as="geometry" />
        </mxCell>
        <mxCell id="cQKNWQUC0CEqerO1ljun-109" value="Patient_ID" style="ellipse;whiteSpace=wrap;html=1;align=center;" parent="1" vertex="1">
          <mxGeometry x="900" y="-530" width="100" height="40" as="geometry" />
        </mxCell>
        <mxCell id="cQKNWQUC0CEqerO1ljun-110" value="Date" style="ellipse;whiteSpace=wrap;html=1;align=center;" parent="1" vertex="1">
          <mxGeometry x="880" y="-590" width="100" height="40" as="geometry" />
        </mxCell>
        <mxCell id="cQKNWQUC0CEqerO1ljun-112" value="Pay" style="shape=rhombus;perimeter=rhombusPerimeter;whiteSpace=wrap;html=1;align=center;" parent="1" vertex="1">
          <mxGeometry x="730" y="-580" width="120" height="60" as="geometry" />
        </mxCell>
        <mxCell id="cQKNWQUC0CEqerO1ljun-114" value="" style="edgeStyle=entityRelationEdgeStyle;fontSize=12;html=1;endArrow=ERmandOne;startArrow=ERmandOne;rounded=0;entryX=0.417;entryY=1;entryDx=0;entryDy=0;entryPerimeter=0;" parent="1" target="cQKNWQUC0CEqerO1ljun-112" edge="1">
          <mxGeometry width="100" height="100" relative="1" as="geometry">
            <mxPoint x="760" y="-430" as="sourcePoint" />
            <mxPoint x="860" y="-530" as="targetPoint" />
          </mxGeometry>
        </mxCell>
        <mxCell id="cQKNWQUC0CEqerO1ljun-117" value="1" style="edgeLabel;html=1;align=center;verticalAlign=middle;resizable=0;points=[];" parent="cQKNWQUC0CEqerO1ljun-114" vertex="1" connectable="0">
          <mxGeometry x="0.4507" y="1" relative="1" as="geometry">
            <mxPoint as="offset" />
          </mxGeometry>
        </mxCell>
        <mxCell id="u-pGUxVfbHAm7FD4ZeKf-1" value="1" style="edgeLabel;html=1;align=center;verticalAlign=middle;resizable=0;points=[];" vertex="1" connectable="0" parent="cQKNWQUC0CEqerO1ljun-114">
          <mxGeometry x="-0.3683" y="3" relative="1" as="geometry">
            <mxPoint as="offset" />
          </mxGeometry>
        </mxCell>
        <mxCell id="cQKNWQUC0CEqerO1ljun-118" value="Advice" style="ellipse;whiteSpace=wrap;html=1;align=center;" parent="1" vertex="1">
          <mxGeometry x="200" y="-540" width="100" height="40" as="geometry" />
        </mxCell>
        <mxCell id="cQKNWQUC0CEqerO1ljun-119" value="Medicine" style="ellipse;whiteSpace=wrap;html=1;align=center;" parent="1" vertex="1">
          <mxGeometry x="260" y="-580" width="100" height="40" as="geometry" />
        </mxCell>
        <mxCell id="cQKNWQUC0CEqerO1ljun-120" value="Remark" style="ellipse;whiteSpace=wrap;html=1;align=center;" parent="1" vertex="1">
          <mxGeometry x="355" y="-580" width="100" height="40" as="geometry" />
        </mxCell>
        <mxCell id="cQKNWQUC0CEqerO1ljun-121" value="Requests" style="shape=rhombus;perimeter=rhombusPerimeter;whiteSpace=wrap;html=1;align=center;" parent="1" vertex="1">
          <mxGeometry x="340" y="-740" width="130" height="70" as="geometry" />
        </mxCell>
        <mxCell id="u-pGUxVfbHAm7FD4ZeKf-3" value="" style="edgeStyle=entityRelationEdgeStyle;fontSize=12;html=1;endArrow=ERmandOne;startArrow=ERmandOne;rounded=0;" edge="1" parent="1" target="cQKNWQUC0CEqerO1ljun-1">
          <mxGeometry width="100" height="100" relative="1" as="geometry">
            <mxPoint x="780" y="-580" as="sourcePoint" />
            <mxPoint x="880" y="-680" as="targetPoint" />
          </mxGeometry>
        </mxCell>
        <mxCell id="u-pGUxVfbHAm7FD4ZeKf-4" value="1" style="edgeLabel;html=1;align=center;verticalAlign=middle;resizable=0;points=[];" vertex="1" connectable="0" parent="u-pGUxVfbHAm7FD4ZeKf-3">
          <mxGeometry x="-0.4275" y="2" relative="1" as="geometry">
            <mxPoint as="offset" />
          </mxGeometry>
        </mxCell>
      </root>
    </mxGraphModel>
  </diagram>
</mxfile>
